<svg viewBox="0 0 150 150" fill="none" xmlns="http://www.w3.org/2000/svg">
<path d="M22.922 86.3997C39.9215 98.0446 63.5994 93.1415 75.1347 75.9806C86.6701 58.8197 109.741 53.9166 127.347 65.5615C143.74 76.5935 148.597 98.0446 139.49 114.593C159.525 80.2709 150.418 35.53 116.419 12.8531C81.8131 -10.4367 35.0645 -1.24335 11.9938 33.6913C11.3866 34.9171 10.7795 36.1429 10.1724 36.7558C1.67262 54.5295 7.13675 75.3678 22.922 86.3997Z" fill="#ED4C5C"/>
<path d="M127.347 63.6002C110.348 51.9554 86.6698 56.8585 75.1345 74.0194C63.5991 91.1802 40.5283 96.0834 22.9217 84.4385C6.52936 73.4065 1.67236 51.9554 10.7792 35.4074C-9.86301 69.7291 -0.149003 114.47 33.85 137.147C68.4561 160.437 115.205 151.243 138.275 116.309C138.883 115.083 139.49 113.857 140.097 113.244C148.597 95.4705 143.132 74.6322 127.347 63.6002Z" fill="#428BC1"/>
<path d="M46.7532 33.1169H63.6465V66.9727L95.1806 33.1169H117.142L83.6369 66.6906L118.831 114.935H96.8699L71.8116 79.1043L63.6465 87.5683V114.935H46.7532V33.1169Z" fill="white"/>
</svg>
